<svg xmlns="http://www.w3.org/2000/svg" data-name="Layer 1" viewBox="0 0 512 512" id="atm-machine"><path fill="#e1e1e3" d="M7.5,7.5h497a0,0,0,0,1,0,0v302a30,30,0,0,1-30,30H37.5a30,30,0,0,1-30-30V7.5A0,0,0,0,1,7.5,7.5Z"></path><path fill="#c8c5cc" d="M474.5,7.5v302a30,30,0,0,1-30,30h30a30,30,0,0,0,30-30V7.5Z"></path><path fill="#fdd8ae" d="M382.92,480.79V451.63a76,76,0,0,1,7.07-32l16.35-35.19a76.08,76.08,0,0,0,6-45L398.4,259.5c-13.53-9.27-26-12.79-39.51-22.06-19.64,6.82-35.7,5.59-55.34,12.4a23.71,23.71,0,0,0-8.32,16.89,23,23,0,0,0,7,17.46l17.94,17.27"></path><path fill="#fbbf7d" d="M358.89,237.44,300,257.89c-1.07.9-4.37-1.25-4.74,8.84a23,23,0,0,0,7,17.46l17.94,17.27Z"></path><rect width="265" height="60" x="209.5" y="7.5" fill="#8b8893" rx="15"></rect><path fill="#227fc0" d="M416,37.5v192a30,30,0,0,1-30,30H283a30,30,0,0,1-30-30V37.5Z"></path><path fill="#787681" d="M431,37.14V229.5a30,30,0,0,1-30,30H386V37.14Z"></path><path fill="#57565c" d="M416,37.5v192a30,30,0,0,1-30,30h15a30,30,0,0,0,30-30V37.5Z"></path><path fill="#fecc30" d="M310.9,195.8a17.5,17.5,0,1,0-23.83,0,3,3,0,0,1,0,4.42,17.5,17.5,0,1,0,23.83,0A3,3,0,0,1,310.9,195.8Z"></path><path fill="#f8be32" d="M310.93,200.22a3,3,0,0,1,0-4.42,17.47,17.47,0,0,0-17-29.53,17.6,17.6,0,0,1,12.36,15.25,17.4,17.4,0,0,1-5.53,14.28,3,3,0,0,0,0,4.42,17.47,17.47,0,0,1-6.84,29.51,16.88,16.88,0,0,0,4.09.74,17.48,17.48,0,0,0,12.92-30.25Z"></path><path fill="#fdd8ae" d="M292,462.4V380.69a73.88,73.88,0,0,1,6.37-30l21.86-49.22L334,251.53a17.1,17.1,0,0,1,18.65-12.41h0a17.1,17.1,0,0,1,14.72,19.5l-6.76,44.79a38.1,38.1,0,0,0-.13,10.45L379,462.42"></path><path fill="#fbbf7d" d="M352.35 258.61l-6.76 44.8h3.5A13.38 13.38 0 0 0 362.31 292l5-33a17.37 17.37 0 0 0-12.38-19.44 17.05 17.05 0 0 0-12 1.16A17.08 17.08 0 0 1 352.35 258.61zM383.4 259.5l13.91 79.88a76.08 76.08 0 0 1-6 45L375 419.6c-3.47 7.49-11.05 34.63-12 42.8l19.89 18.39V451.63a76 76 0 0 1 7.07-32l16.35-35.19a76.08 76.08 0 0 0 6-45L398.4 259.5z"></path><path fill="#eb304a" d="M270.6,512l0-34.9a14.72,14.72,0,0,1,14.75-14.7l108.22,0a14.73,14.73,0,0,1,14.75,14.71l0,34.87"></path><path fill="#e4222e" d="M408.3,477.13a14.73,14.73,0,0,0-14.75-14.71l-108.22,0h-.14l78.36,0a14.73,14.73,0,0,1,14.75,14.71l0,34.87h30Z"></path><rect width="34.97" height="34.97" x="37.5" y="87.56" fill="#666" rx="4"></rect><rect width="34.97" height="34.97" x="102.47" y="87.56" fill="#666" rx="4"></rect><rect width="34.97" height="34.97" x="167.44" y="87.56" fill="#666" rx="4"></rect><rect width="34.97" height="34.97" x="37.5" y="152.53" fill="#666" rx="4"></rect><rect width="34.97" height="34.97" x="102.47" y="152.53" fill="#666" rx="4"></rect><rect width="34.97" height="34.97" x="167.44" y="152.53" fill="#666" rx="4"></rect><rect width="34.97" height="34.97" x="37.5" y="217.5" fill="#666" rx="4"></rect><rect width="34.97" height="34.97" x="102.47" y="217.5" fill="#666" rx="4"></rect><rect width="34.97" height="34.97" x="167.44" y="217.5" fill="#666" rx="4"></rect><path fill="#4d4d4d" d="M198.41 217.5H185.46a4 4 0 0 1 4 4v27a4 4 0 0 1-4 4h12.95a4 4 0 0 0 4-4v-27A4 4 0 0 0 198.41 217.5zM198.41 152.53H185.46a4 4 0 0 1 4 4v27a4 4 0 0 1-4 4h12.95a4 4 0 0 0 4-4v-27A4 4 0 0 0 198.41 152.53zM198.41 87.56H185.46a4 4 0 0 1 4 4v27a4 4 0 0 1-4 4h12.95a4 4 0 0 0 4-4v-27A4 4 0 0 0 198.41 87.56zM133.44 217.5h-13a4 4 0 0 1 4 4v27a4 4 0 0 1-4 4h13a4 4 0 0 0 4-4v-27A4 4 0 0 0 133.44 217.5zM133.44 152.53h-13a4 4 0 0 1 4 4v27a4 4 0 0 1-4 4h13a4 4 0 0 0 4-4v-27A4 4 0 0 0 133.44 152.53zM133.44 87.56h-13a4 4 0 0 1 4 4v27a4 4 0 0 1-4 4h13a4 4 0 0 0 4-4v-27A4 4 0 0 0 133.44 87.56zM68.47 217.5H55.52a4 4 0 0 1 4 4v27a4 4 0 0 1-4 4H68.47a4 4 0 0 0 4-4v-27A4 4 0 0 0 68.47 217.5zM68.47 152.53H55.52a4 4 0 0 1 4 4v27a4 4 0 0 1-4 4H68.47a4 4 0 0 0 4-4v-27A4 4 0 0 0 68.47 152.53zM68.47 87.56H55.52a4 4 0 0 1 4 4v27a4 4 0 0 1-4 4H68.47a4 4 0 0 0 4-4v-27A4 4 0 0 0 68.47 87.56z"></path><path fill="#3c3b41" d="M72.47,209.93h-35a7.5,7.5,0,0,0-7.5,7.5v35a7.5,7.5,0,0,0,7.5,7.5h35a7.5,7.5,0,0,0,7.5-7.5v-35A7.5,7.5,0,0,0,72.47,209.93Zm-7.5,35H45v-20H65Zm258.94-64.07A25,25,0,1,0,279,197.92a25,25,0,0,0,18.58,40c.48,0,1,0,1.43,0a24.77,24.77,0,0,0,17.16-6.84,24.95,24.95,0,0,0,2.8-33.15A24.89,24.89,0,0,0,323.91,180.83Zm-18,39.36a10,10,0,0,1-7.45,2.72,10.12,10.12,0,0,1-9.39-9.12,10,10,0,0,1,3.16-8.17,10.49,10.49,0,0,0,3.36-7.67,10.63,10.63,0,0,0-3.37-7.73A10,10,0,0,1,299,172.93l.57,0a10.12,10.12,0,0,1,9.39,9.11,9.94,9.94,0,0,1-3.16,8.17,10.53,10.53,0,0,0,0,15.41,10,10,0,0,1,.06,14.55ZM137.44,209.93h-35a7.5,7.5,0,0,0-7.5,7.5v35a7.5,7.5,0,0,0,7.5,7.5h35a7.5,7.5,0,0,0,7.5-7.5v-35A7.5,7.5,0,0,0,137.44,209.93Zm-7.5,35H110v-20h20ZM202.41,80h-35a7.5,7.5,0,0,0-7.5,7.5v35a7.5,7.5,0,0,0,7.5,7.5h35a7.5,7.5,0,0,0,7.5-7.5v-35A7.5,7.5,0,0,0,202.41,80Zm-7.5,35h-20V95h20Zm7.5,30h-35a7.5,7.5,0,0,0-7.5,7.5v35a7.5,7.5,0,0,0,7.5,7.5h35a7.5,7.5,0,0,0,7.5-7.5v-35A7.5,7.5,0,0,0,202.41,145Zm-7.5,35h-20V160h20Zm7.5,30h-35a7.5,7.5,0,0,0-7.5,7.5v35a7.5,7.5,0,0,0,7.5,7.5h35a7.5,7.5,0,0,0,7.5-7.5v-35A7.5,7.5,0,0,0,202.41,209.93Zm-7.5,35h-20v-20h20ZM504.5-.07H7.5A7.5,7.5,0,0,0,0,7.43v302a37.54,37.54,0,0,0,37.5,37.5H291.78l-.28.63a81,81,0,0,0-7,33.06v74.25A22.16,22.16,0,0,0,263.08,477V504.4a7.5,7.5,0,0,0,7.5,7.5h0a7.5,7.5,0,0,0,7.49-7.51V477a7.12,7.12,0,0,1,2.11-5.09,7.23,7.23,0,0,1,5.13-2.11H292l90.9,0h10.64a7.24,7.24,0,0,1,7.25,7.22l0,27.36a7.5,7.5,0,0,0,7.5,7.5h0a7.5,7.5,0,0,0,7.5-7.51l0-27.36a22.26,22.26,0,0,0-22.25-22.21h-3.13v-3.29a68.93,68.93,0,0,1,6.37-28.87l16.35-35.19a83.22,83.22,0,0,0,7.61-40.57H474.5a37.55,37.55,0,0,0,37.5-37.5V7.43A7.5,7.5,0,0,0,504.5-.07ZM217,22.43a7.5,7.5,0,0,1,7.5-7.5h235a7.51,7.51,0,0,1,7.5,7.5v30a7.51,7.51,0,0,1-7.5,7.5h-21v-15h6a7.5,7.5,0,0,0,0-15h-205a7.5,7.5,0,0,0,0,15h6v15h-21a7.5,7.5,0,0,1-7.5-7.5Zm206.5,22.5v184.5a22.53,22.53,0,0,1-22.5,22.5h-7.5v-207ZM283,251.93a22.52,22.52,0,0,1-22.5-22.5V44.93h31v26.5a7.5,7.5,0,0,0,15,0V44.93h72v207h-3.82a24.57,24.57,0,0,0-47.93-2.46l-.68,2.46Zm38.93,15-8.1,29.39-9.92-9.56A15.31,15.31,0,0,1,299.15,275a15.57,15.57,0,0,1,2.67-8.06Zm-284.43,65A22.52,22.52,0,0,1,15,309.43V14.93H203.29a22.22,22.22,0,0,0-1.29,7.5v30a22.52,22.52,0,0,0,22.5,22.5h21v154.5a37.54,37.54,0,0,0,37.5,37.5h2.41a29.68,29.68,0,0,0-1.25,7.49,30.56,30.56,0,0,0,9.34,23.15l14.16,13.62-9.21,20.74Zm362,49.25-16.35,35.19a84.12,84.12,0,0,0-7.76,35.19v3.29l-75.93,0V380.62a66,66,0,0,1,5.72-27l5-11.27,0-.05,16.83-37.9a7.73,7.73,0,0,0,.38-1.05l13.76-49.93a9.59,9.59,0,0,1,18.72,4l-7.55,50a7.52,7.52,0,0,0-.08,1.42l1.82,45a7.5,7.5,0,0,0,15-.6L367.32,309l6.35-42h18.51l12.66,73.22a7.5,7.5,0,0,0,.15.93A68.16,68.16,0,0,1,399.53,381.18ZM497,309.43a22.53,22.53,0,0,1-22.5,22.5H418.64l-11.33-65.54a37.55,37.55,0,0,0,31.19-37V74.93h21A22.53,22.53,0,0,0,482,52.43v-30a22.46,22.46,0,0,0-1.29-7.5H497ZM72.47,145h-35a7.5,7.5,0,0,0-7.5,7.5v35a7.5,7.5,0,0,0,7.5,7.5h35a7.5,7.5,0,0,0,7.5-7.5v-35A7.5,7.5,0,0,0,72.47,145Zm-7.5,35H45V160H65ZM72.47,80h-35a7.5,7.5,0,0,0-7.5,7.5v35a7.5,7.5,0,0,0,7.5,7.5h35a7.5,7.5,0,0,0,7.5-7.5v-35A7.5,7.5,0,0,0,72.47,80ZM65,115H45V95H65Zm72.47,30h-35a7.5,7.5,0,0,0-7.5,7.5v35a7.5,7.5,0,0,0,7.5,7.5h35a7.5,7.5,0,0,0,7.5-7.5v-35A7.5,7.5,0,0,0,137.44,145Zm-7.5,35H110V160h20ZM137.44,80h-35a7.5,7.5,0,0,0-7.5,7.5v35a7.5,7.5,0,0,0,7.5,7.5h35a7.5,7.5,0,0,0,7.5-7.5v-35A7.5,7.5,0,0,0,137.44,80Zm-7.5,35H110V95h20Z"></path></svg>